<svg width="1920" height="1907" viewBox="0 0 1920 1907" fill="none" xmlns="http://www.w3.org/2000/svg">
<path d="M792.554 1616.66L701.697 1459.29C675.739 1414.33 660.406 1373 633.251 1356.03C606.095 1339.06 589.603 1326.43 557.911 1326.54C573.867 1299.17 571.166 1278.6 570.043 1246.55C568.92 1214.51 541.254 1181.4 515.296 1136.44L424.427 979.044C401.618 939.539 405.323 915.019 415.508 890.51C425.694 866.001 447.904 842.614 490.335 818.116L441.311 734.958L436.845 737.536C396.65 760.742 365.228 784.106 342.578 807.628C319.927 831.15 304.641 854.964 296.719 879.07C288.775 903.195 287.757 928.078 293.663 953.718C299.57 979.359 310.579 1006.15 326.69 1034.1L432.882 1218.03C439.989 1230.39 444.99 1243.85 447.678 1257.85C450.459 1271.95 450.223 1286.48 446.984 1300.49C443.724 1314.63 443.082 1312.65 433.386 1325.4C423.779 1338.01 398.227 1349.49 381.875 1362.44L438.762 1460.97C456.63 1450.65 489.213 1438.73 505.215 1437.2C521.218 1435.67 511.598 1432.12 525.476 1436.37C539.222 1440.57 551.923 1447.63 562.747 1457.09C573.528 1466.42 582.682 1477.48 589.832 1489.81L696.02 1673.74C712.145 1701.66 729.848 1724.59 749.129 1742.52C768.411 1760.46 790.557 1772.2 815.569 1777.74C840.567 1783.25 868.83 1781.92 900.357 1773.75C931.884 1765.58 967.731 1749.88 1007.9 1726.64L1012.36 1724.06L964.385 1639.21C921.953 1663.71 893.723 1676.72 867.434 1673.29C841.146 1669.85 815.35 1656.14 792.554 1616.66Z" fill="white" fill-opacity="0.02"/>
<path d="M1507.14 403.918L1333.71 504.051L1661.87 1072.45L1813.63 984.839C1873.49 950.275 1929.92 823.299 1895.06 762.927L1721.51 462.327C1686.66 401.955 1567 369.359 1507.14 403.918ZM1785.77 761.574C1810.23 803.944 1801.8 875.069 1757.72 900.52L1611.43 984.982L1381.09 586.031L1527.39 501.569C1571.47 476.119 1639.5 508.228 1663.97 550.613L1785.77 761.574Z" fill="white" fill-opacity="0.02"/>
<path d="M1568.14 677.551C1548.76 685.237 1526.06 701.612 1510.31 703.645C1494.39 705.68 1495.77 707.214 1481.93 702.963C1468.19 698.765 1455.48 691.705 1444.66 682.246C1433.88 672.915 1424.73 661.854 1417.58 649.518L1311.39 465.588C1295.27 437.665 1277.56 414.736 1258.28 396.803C1238.99 378.87 1216.93 367.31 1192.1 362.125C1167.28 356.929 1139.02 358.259 1107.31 366.115C1075.6 373.97 1039.65 389.501 999.472 412.707L995.007 415.285L1042.55 499.3C1084.98 474.802 1116.38 467.285 1142.66 470.695C1168.93 474.105 1192.07 483.176 1214.88 522.681L1305.73 680.035C1331.68 724.996 1346.53 765.493 1373.71 782.511C1400.9 799.529 1417.37 812.131 1449.05 811.997C1433.1 839.386 1435.79 859.936 1436.92 891.989C1438.04 924.042 1466.19 957.967 1492.13 1002.89L1583.01 1160.3C1605.81 1199.79 1604.78 1228.97 1594.6 1253.48C1584.41 1277.99 1559.04 1295.91 1516.61 1320.4L1566.07 1404.4L1570.54 1401.82C1610.74 1378.61 1642.26 1355.42 1665.1 1332.24C1687.95 1309.07 1703.23 1285.26 1710.96 1260.81C1718.71 1236.35 1719.63 1211.29 1713.71 1185.64C1707.8 1159.99 1696.8 1133.2 1680.7 1105.25L1574.51 921.329C1567.4 908.971 1562.4 895.516 1559.71 881.515C1556.93 867.413 1557.17 852.883 1560.4 838.879C1563.66 824.735 1561.94 834.849 1571.25 821.745C1580.56 808.642 1607.2 786.392 1625.06 776.08L1568.14 677.551Z" fill="white" fill-opacity="0.02"/>
<path d="M865.799 810.449C1030.34 715.449 1150.32 615.189 1133.76 586.514C1117.2 557.839 970.392 611.607 805.846 706.607C641.299 801.608 521.329 901.867 537.885 930.543C554.441 959.218 701.253 905.45 865.799 810.449Z" fill="#EAB38D" fill-opacity="0.02"/>
<path d="M741.791 415.902C668.576 373.124 516.122 307.136 563.288 202.593C487.796 321.05 663.165 407.909 729.94 509.627C769.901 570.485 734.973 632.731 679.331 700.782C729.637 672.124 778.731 632.994 805.368 575.091C825.603 515.24 789.337 443.701 741.791 415.902Z" fill="#E0CDC2" fill-opacity="0.02"/>
</svg>
