<svg width="72" height="70" viewBox="0 0 72 70" fill="none" xmlns="http://www.w3.org/2000/svg">
<g filter="url(#filter0_d_194_565)">
<path d="M13.2319 53.8417V46.5363C13.2319 44.4492 13.5303 42.7019 12.9231 41.5653C12.3158 40.4287 11.9941 39.6572 10.8832 39.0241C11.9941 38.3919 12.3151 37.6214 12.9231 36.4831C13.531 35.3448 13.2319 33.6359 13.2319 31.5487V24.2423C13.2319 22.4084 13.8567 21.6292 14.7081 20.9806C15.5594 20.332 16.8087 19.9642 18.7878 19.9642L18.7524 16.0835H18.5441C16.6693 16.0835 15.0982 16.2653 13.8308 16.629C12.5633 16.9926 11.5476 17.5145 10.7836 18.1945C10.0185 18.8748 9.48028 19.7206 9.16905 20.7321C8.85782 21.7435 8.70176 22.8977 8.70086 24.1946V32.733C8.69987 33.3062 8.60301 33.8753 8.41427 34.4168C8.22675 34.9637 7.92499 35.4648 7.52885 35.8873C7.12918 36.3142 7.14673 36.2322 6.54993 36.4815C5.9592 36.7273 4.83344 36.6135 4 36.7354V41.3094C4.83344 41.3094 6.21405 41.5492 6.80478 41.8176C7.39551 42.0859 7.13053 41.7692 7.5302 42.1961C7.92623 42.6187 8.22797 43.1198 8.41562 43.6666C8.60434 44.2081 8.70119 44.7772 8.70221 45.3504V53.8884C8.70221 55.1849 8.85839 56.3391 9.17074 57.351C9.4831 58.3629 10.0207 59.2168 10.7836 59.9127C11.5469 60.6069 12.5625 61.1286 13.8304 61.4779C15.0983 61.8273 16.6694 62.0011 18.5438 61.9996H18.752L18.7875 58.0809C16.8084 58.0809 15.558 57.9663 14.7077 57.3184C13.8574 56.6705 13.2319 55.6746 13.2319 53.8417Z" fill="white"/>
<path d="M61.6254 26.2295H53.4656V52.6159H60.6053C63.4219 52.6159 67.9999 49.3293 67.9999 46.5267V32.5722C67.9999 29.7697 64.4417 26.2295 61.6254 26.2295ZM64.1709 44.2827C64.1709 46.2496 62.4244 48.5564 60.3504 48.5564H53.4676V30.0364H60.3504C62.4244 30.0364 64.1709 32.5219 64.1709 34.4894V44.2827Z" fill="white"/>
<path d="M60.6724 36.7022C59.8393 36.5803 58.7145 36.6941 58.1224 36.4483C57.5243 36.199 57.5418 36.2803 57.1435 35.8541C56.7474 35.4316 56.4456 34.9305 56.2581 34.3836C56.0695 33.842 55.9727 33.273 55.9718 32.6998V24.1614C55.9718 22.8652 55.8156 21.711 55.503 20.6989C55.1904 19.6867 54.6522 18.8409 53.8884 18.1613C53.1251 17.4815 52.1095 16.9596 50.8416 16.5958C49.5737 16.2319 48.0026 16.0501 46.1283 16.0503H45.92L45.8862 19.931C47.8653 19.931 49.1157 20.3005 49.966 20.9474C50.8163 21.5943 51.4425 22.3752 51.4425 24.2091V31.5138C51.4425 33.601 51.1437 35.3093 51.751 36.4483C52.3583 37.5872 52.68 38.3571 53.7909 38.9892C52.68 39.6223 52.3589 40.3918 51.751 41.5304C51.1431 42.6691 51.4425 44.416 51.4425 46.5015V53.8085C51.4425 55.6421 50.8173 56.6373 49.966 57.2859C49.1147 57.9345 47.8653 58.0483 45.8862 58.0483L45.92 61.967H46.1283C48.0033 61.967 49.5744 61.7932 50.8416 61.4454C52.1088 61.0977 53.1244 60.5759 53.8884 59.8802C54.6536 59.1843 55.1917 58.3304 55.503 57.3185C55.8142 56.3066 55.9705 55.1524 55.9718 53.8559V45.3178C55.9727 44.7447 56.0695 44.1756 56.2581 43.6341C56.4457 43.0873 56.7475 42.5861 57.1435 42.1636C57.5432 41.7367 57.2785 42.0541 57.8689 41.785C58.4593 41.516 59.8406 41.2769 60.6737 41.2769L60.6724 36.7022Z" fill="white"/>
<path d="M32.0768 27.2444C39.7518 27.2444 45.9735 26.1653 45.9735 24.8341C45.9735 23.5029 39.7518 22.4238 32.0768 22.4238C24.4019 22.4238 18.1802 23.5029 18.1802 24.8341C18.1802 26.1653 24.4019 27.2444 32.0768 27.2444Z" fill="#EAB38D"/>
<path d="M35.7078 11.0148C34.0105 8.05372 30.0101 2.69174 33.7715 0C28.7382 2.60676 33.1187 9.15607 33.4002 14.0398C33.569 16.9619 31.09 18.427 27.769 19.6778C30.1077 19.6913 32.6154 19.3158 34.7167 17.8352C36.6334 16.1582 36.8096 12.9384 35.7078 11.0148Z" fill="#E0CDC2"/>
</g>
<defs>
<filter id="filter0_d_194_565" x="0" y="0" width="72" height="70" filterUnits="userSpaceOnUse" color-interpolation-filters="sRGB">
<feFlood flood-opacity="0" result="BackgroundImageFix"/>
<feColorMatrix in="SourceAlpha" type="matrix" values="0 0 0 0 0 0 0 0 0 0 0 0 0 0 0 0 0 0 127 0" result="hardAlpha"/>
<feOffset dy="4"/>
<feGaussianBlur stdDeviation="2"/>
<feComposite in2="hardAlpha" operator="out"/>
<feColorMatrix type="matrix" values="0 0 0 0 0 0 0 0 0 0 0 0 0 0 0 0 0 0 0.25 0"/>
<feBlend mode="normal" in2="BackgroundImageFix" result="effect1_dropShadow_194_565"/>
<feBlend mode="normal" in="SourceGraphic" in2="effect1_dropShadow_194_565" result="shape"/>
</filter>
</defs>
</svg>
